<?xml version="1.0" encoding="utf-8"?>
<!-- Generator: $$$/GeneralStr/196=Adobe Illustrator 27.6.0, SVG Export Plug-In . SVG Version: 6.00 Build 0)  -->
<svg version="1.1" id="a" xmlns="http://www.w3.org/2000/svg" xmlns:xlink="http://www.w3.org/1999/xlink" x="0px" y="0px"
	 viewBox="0 0 490.8 131.7" style="enable-background:new 0 0 490.8 131.7;" xml:space="preserve">
<path d="M165.5,50.7c0-4.4,3.6-8,8-8s8,3.6,8,8s-3.6,8-8,8S165.5,55.1,165.5,50.7L165.5,50.7z M181.5,21.4c5.9,0,10.7-4.8,10.7-10.7
	S187.4,0,181.5,0s-10.7,4.8-10.7,10.7S175.6,21.4,181.5,21.4L181.5,21.4z M218.9,69.4c2.9,0,5.3-2.4,5.3-5.3c0-2.9-2.4-5.3-5.3-5.3
	c-2.9,0-5.3,2.4-5.3,5.3C213.5,67,215.9,69.4,218.9,69.4L218.9,69.4z M109.4,106.8c-4.4,0-8,3.6-8,8s3.6,8,8,8s8-3.6,8-8
	S113.8,106.8,109.4,106.8C109.4,106.8,109.4,106.8,109.4,106.8z M93.4,58.7c-4.4,0-8,3.6-8,8s3.6,8,8,8s8-3.6,8-8
	S97.8,58.7,93.4,58.7z M58.7,85.4c-8.8,0-16,7.2-16,16s7.2,16,16,16s16-7.2,16-16S67.6,85.4,58.7,85.4z M10.7,112.1
	C10.7,56,56,10.7,112.1,10.7c0.8,0,1.6,0.1,2.3,0.1c-0.8,2.6-2.3,5-2.3,7.9c0,10.3,6.1,18.6,14.2,23.8c-2.1,5-3.5,10.4-3.5,16.2
	c0,23.5,19.2,42.7,42.7,42.7c5.8,0,11.2-1.4,16.2-3.5c5.2,8.1,13.5,14.2,23.8,14.2c2.9,0,5.2-1.5,7.9-2.3c0,0.8,0.1,1.6,0.1,2.3
	c0,6.5-0.6,12.9-1.8,19c3.6-0.1,7.3-0.1,10.9-0.2c1-6.1,1.6-12.4,1.6-18.9c0-3.3-0.2-6.5-0.5-9.6c-0.2-1.8-1.3-3.5-2.9-4.3
	c-1.7-0.8-3.7-0.7-5.3,0.3c-2.9,1.9-6.3,3-10,3c-7.9,0-14.6-4.9-17.3-11.8c-0.6-1.4-1.7-2.5-3.1-3c-1.4-0.5-3-0.4-4.4,0.3
	c-4.5,2.4-9.7,3.8-15.2,3.8c-17.7,0-32-14.3-32-32c0-5.5,1.4-10.7,3.8-15.2c0.7-1.3,0.8-2.9,0.3-4.4c-0.5-1.4-1.6-2.6-3-3.1
	c-6.9-2.8-11.8-9.4-11.8-17.3c0-3.7,1.1-7.1,3-10c1-1.6,1.1-3.6,0.3-5.3c-0.8-1.7-2.5-2.8-4.3-2.9c-3.1-0.3-6.3-0.5-9.6-0.5
	C50.3,0,0,50.2,0,112.1c0,6,0.5,11.9,1.4,17.6c3.7,0.4,7.4,0.8,11,1C11.3,124.7,10.7,118.5,10.7,112.1L10.7,112.1L10.7,112.1z
	 M258.5,54.4h0.1c0-0.8-0.1-1.7,0-2.5c0-1.3,0.2-2.5,0.4-3.8c0.1-1.3,0.2-2.6,0.4-3.8c0.1-1.4,0-3,0.4-4.4c0.7-3.9,1.5-7.9,3.5-11.5
	c0.1-0.1,0.2-0.4,0.2-0.6c0.7-1.8,1.8-3.5,2.9-5.1c1.4-2.1,3.3-3.2,5.7-3.7c1.4-0.2,3-0.1,4.4,0.8c1.2,0.8,2.5,1.8,3.3,3.1
	c0.6,0.9,1.4,1.4,2.4,1.7c0.7,0.1,1.3,0.2,2,0.2c1.5,0.1,2.1-0.4,2.6-1.8c0-0.2,0.1-0.4,0.1-0.6c0.2-2,0-3.9-1.2-5.7
	c-0.8-1.1-1.5-2-2.4-3.1c-0.4-0.4-1-0.8-1.3-1.2c-0.4-0.2-0.7-0.4-1-0.6c-2.3-1.5-4.6-2.6-7.4-3.1c-3-0.5-5.6,0.1-8,1.9
	c-1.5,1.2-3,2.5-4.2,4.1c-0.8,1-1.8,1.9-2.5,2.9c-0.7,1.1-1.3,2.1-1.9,3.2c-0.8,1.4-1.5,2.7-2.1,4.2c-1.2,2.7-2.1,5.6-2.7,8.5
	c-0.7,2.7-1.2,5.6-1.7,8.4c-0.5,2.4-1,4.7-1.3,7c-0.7,4.5-0.4,9.1,0.5,13.7c0.1,1.2,0.5,2.3,0.7,3.5c0.4,2.5,0.8,4.9,1.5,7.3
	c0.5,1.7,1,3.5,1.8,5.1c0.9,2.3,2.1,4.4,3.5,6.6c0.7,1.3,1.5,2.5,2.7,3.5c2.7,2.1,6,3.2,9.3,3.9c1.8,0.4,3.7,0.4,5.6,0.2
	c2.9-0.2,5.5-1.2,7.6-3.2c0.8-0.7,1.7-1.5,2.5-2.3c1.7-1.5,2.7-3.5,3.7-5.5c0.1-0.5,0.2-1,0.2-1.3c-0.1-1.7-1.1-2.9-2.6-3.5
	c-1.5-0.6-2.9-0.5-3.9,0.5c-1.7,1.3-3.1,2.7-4.6,4.2c-0.7,0.7-1.5,1.3-2.5,1.3c-1.1,0.1-2.1,0.1-3.1,0.1c-0.6,0-1.1-0.1-1.5-0.4
	c-1.3-0.7-2.7-1.4-3.9-2.1c-1.8-1.2-3.2-2.6-4.1-4.7c-0.5-0.9-0.8-1.9-1.3-3c-0.8-2.1-1.5-4.4-1.9-6.8c-0.2-1.8-0.4-3.6-0.5-5.5
	C258.8,58.4,258.7,56.4,258.5,54.4L258.5,54.4L258.5,54.4z M295.7,52.2c0,1.7,0,3.5,0.1,5.1c0,2,0.1,4.2,0.4,6.2
	c0.2,1.9,0.7,3.9,1.1,5.8c0.4,2.4,1,4.8,1.9,6.9c1.2,2.9,2.5,5.6,3.8,8.4c0.8,1.8,2.3,3.1,3.9,4.1c1.5,0.8,3.1,1.5,4.6,2.4
	c1,0.5,1.8,0.6,2.7,0.7c2.4,0.1,4.6,0.1,6.9-0.8c0.1-0.1,0.2-0.1,0.4-0.1c1.8-0.6,3.5-1.5,4.8-2.9c2-2,3.7-4.4,4.8-7
	c0.9-2.3,1.9-4.5,2.9-6.8c1.2-3.2,2.5-6.3,3.1-9.8c0.5-3,1.2-6.1,1.3-9.2c0.1-4.4,0.2-8.9-0.2-13.4c-0.2-3.1-0.6-6.2-1.1-9.3
	c-0.4-2.4-1-4.8-1.5-7c-0.8-3.3-2.1-6.6-4-9.4c-1.7-2.6-3.7-4.8-6.6-6.1c-0.2-0.1-0.5-0.4-0.7-0.6c-0.8-0.7-1.8-1.2-3-1.2
	c-1.7-0.1-3.3-0.4-5-0.5c-0.8,0-1.8,0-2.6,0.2c-2,0.6-3.9,1.4-5.6,2.9c-0.2,0.4-0.6,0.6-0.9,0.8c-1.4,1.2-2.6,2.5-3.3,4.2
	c-1,1.9-1.9,3.9-2.9,5.8c-1.5,3.3-2.7,6.7-3.3,10.3c-0.5,2.6-0.7,5.4-1.1,8C296,44,295.9,48.1,295.7,52.2L295.7,52.2L295.7,52.2z
	 M305.5,53.6c0.2-4.1,0.2-8,0.6-12c0.2-3.1,0.5-6.1,1.1-9.2c0.7-2.9,1.7-5.6,3.3-8.1c0.6-1,1.1-1.8,1.8-2.6c1.1-1.3,2.5-1.9,4-2
	c0.8-0.1,1.7-0.1,2.5,0c1.7,0.1,3,0.7,3.9,2.1c1,1.4,1.7,3.1,2.1,4.8c1.1,3.5,1.8,7,2.3,10.6c0.8,4.9,0.8,9.8,0.6,14.7
	c-0.1,3-0.6,5.8-0.8,8.8c-0.1,2.4-0.7,4.8-1.3,7c-0.5,2.3-1.1,4.5-1.8,6.7c-0.5,1.7-1.4,3-2.5,4.2c-0.2,0.2-0.6,0.5-0.8,0.5
	c-2.7,1.1-5.4,1.1-8,0c-0.2-0.1-0.4-0.1-0.5-0.2c-0.8-1-1.8-1.8-2.5-2.9c-1.5-2.3-2-4.9-2.6-7.4C305.6,63.6,305.5,58.6,305.5,53.6
	L305.5,53.6L305.5,53.6z M345.1,52.2c0,1.7,0,3.5,0.1,5.1c0,2,0.1,4.2,0.4,6.2c0.2,1.9,0.7,3.9,1.1,5.8c0.4,2.4,1,4.8,1.9,6.9
	c1.2,2.9,2.5,5.6,3.8,8.4c0.8,1.8,2.3,3.1,3.9,4.1c1.5,0.8,3.1,1.5,4.6,2.4c1,0.5,1.8,0.6,2.7,0.7c2.4,0.1,4.6,0.1,6.9-0.8
	c0.1-0.1,0.2-0.1,0.4-0.1c1.8-0.6,3.5-1.5,4.8-2.9c2-2,3.7-4.4,4.8-7c0.9-2.3,1.9-4.5,2.9-6.8c1.2-3.2,2.5-6.3,3.1-9.8
	c0.5-3,1.2-6.1,1.3-9.2c0.1-4.4,0.2-8.9-0.2-13.4c-0.2-3.1-0.6-6.2-1.1-9.3c-0.4-2.4-1-4.8-1.5-7c-0.8-3.3-2.1-6.6-4-9.4
	c-1.7-2.6-3.7-4.8-6.6-6.1c-0.2-0.1-0.5-0.4-0.7-0.6c-0.8-0.7-1.8-1.2-3-1.2c-1.7-0.1-3.3-0.4-5-0.5c-0.8,0-1.8,0-2.6,0.2
	c-2,0.6-3.9,1.4-5.6,2.9c-0.2,0.4-0.6,0.6-0.9,0.8c-1.4,1.2-2.6,2.5-3.3,4.2c-1,1.9-1.9,3.9-2.9,5.8c-1.5,3.3-2.7,6.7-3.3,10.3
	c-0.5,2.6-0.7,5.4-1.1,8C345.4,44,345.2,48.1,345.1,52.2L345.1,52.2L345.1,52.2z M354.9,53.6c0.2-4.1,0.2-8,0.6-12
	c0.2-3.1,0.5-6.1,1.1-9.2c0.7-2.9,1.7-5.6,3.3-8.1c0.6-1,1.1-1.8,1.8-2.6c1.1-1.3,2.5-1.9,4-2c0.8-0.1,1.7-0.1,2.5,0
	c1.7,0.1,3,0.7,3.9,2.1c1,1.4,1.7,3.1,2.1,4.8c1.1,3.5,1.8,7,2.3,10.6c0.8,4.9,0.8,9.8,0.6,14.7c-0.1,3-0.6,5.8-0.8,8.8
	c-0.1,2.4-0.7,4.8-1.3,7c-0.5,2.3-1.1,4.5-1.8,6.7c-0.5,1.7-1.4,3-2.5,4.2c-0.2,0.2-0.6,0.5-0.8,0.5c-2.7,1.1-5.4,1.1-8,0
	c-0.2-0.1-0.4-0.1-0.5-0.2c-0.8-1-1.8-1.8-2.5-2.9c-1.5-2.3-2-4.9-2.6-7.4C355,63.6,354.9,58.6,354.9,53.6L354.9,53.6L354.9,53.6z
	 M394.8,52h-0.1v18.5c0,4.6-0.2,9.4-0.2,14.1c0,2,0.2,4.1,1.3,5.8c0.6,1.1,1.4,1.7,2.5,2.1c0.2,0.1,0.6,0.1,0.8,0.1
	c1-0.4,2-0.7,3-1.2c0.6-0.2,1-0.8,1.2-1.4c1-2.3,1.4-4.8,1.4-7.3c0-2.3,0-4.5-0.1-6.7c-0.1-4.5-0.2-9.2-0.4-13.7
	c-0.1-1.4-0.1-2.9,0.1-4.3c0.1-0.6,0.4-1.2,0.8-1.7c0.6-0.7,1.1-0.7,1.7,0c1.3,2.1,2.7,4.2,4.1,6.2c1.4,2.1,2.7,4.4,4.2,6.7
	c0.6,1.1,1.3,2.1,1.8,3.2c1.2,2.4,2.3,4.9,3.5,7.3c1.3,2.6,2.9,5.2,3.8,8c0.2,0.6,0.5,1.2,0.8,1.7c0.7,1.2,1.5,2.1,3.1,2.4
	c1.1,0.1,2.3,0.1,3.5-0.2c1.3-0.4,2-1.1,2.1-2.4c0.1-0.5,0.1-0.8,0-1.2c-0.1-2.7-0.7-5.4-1.9-7.9c-1.5-3.6-3.2-7-4.9-10.4
	c-1.8-3.2-3.7-6.4-5.5-9.6c-0.6-1.1-1.1-2.1-1.7-3.1c-1.3-1.9-2.6-3.6-3.9-5.4c-0.4-0.6-0.6-1.2-0.2-1.8c0.2-0.5,0.5-0.9,0.8-1.2
	c1.4-0.8,2.7-1.9,3.9-3c1.8-1.7,3.5-3.5,4.8-5.7c1.2-2.1,2-4.3,2.7-6.7c1.3-3.9,2-8,2.7-12.2c0.4-2.7,0.7-5.6,1.1-8.5
	c0.1-0.9-0.1-1.9-0.5-2.9c-0.4-1.1-1.1-1.7-2.1-1.9c-0.6-0.1-1.3-0.2-1.9-0.2c-1.7-0.2-3,0.1-3.9,1.7c-0.8,1.3-1.4,2.7-1.5,4.4
	c-0.5,3.2-1,6.6-1.7,9.8c-0.8,3.3-1.9,6.6-3.6,9.7c-0.5,1-1.1,1.8-2,2.5c-0.8,0.7-1.7,1.4-2.4,2.1c-1.4,1.4-3.2,2.1-5,2.9
	c-0.8,0.2-1.5,0-2.3-0.4c-0.5-0.4-0.5-1-0.5-1.5v-7.3c-0.1-6,0.4-11.9-0.4-17.9c-0.1-1.4-0.5-2.7-1.1-3.9c-0.4-0.8-1.1-1.3-1.9-1.3
	c-0.8-0.1-1.7-0.1-2.5-0.1c-0.6,0-0.9,0.2-1.3,0.7c-0.5,0.7-0.8,1.5-1.1,2.4c-0.6,2.7-0.9,5.6-0.9,8.5c-0.1,7.6-0.1,15.3-0.2,22.9
	L394.8,52L394.8,52L394.8,52z M442.8,54.1h-0.1v1.7c0,3.6-0.1,7.2-0.1,10.7c-0.1,6.2-0.2,12.4-0.4,18.6c0,1.2,0.2,2.4,0.5,3.6
	c0.5,1.4,1.4,2.5,3.1,2.9c0.4,0.1,0.6,0.2,1,0.4c1.2,0.5,3.2,0.1,4.2-1.1c0.5-0.7,1-1.3,1.1-2.1c0.1-1,0.2-1.9,0.2-2.9
	c-0.1-4.4-0.2-8.7-0.2-13c-0.1-6-0.1-11.9-0.1-17.9V30.6c0-2.6,0-5.2,0.1-7.9c0.2-3.6,0.1-7-0.5-10.6c-0.1-0.8-0.4-1.7-0.8-2.3
	c-0.5-0.5-0.8-1-1.5-1c-1.1,0-2.3,0-3.3,0.1c-0.4,0-0.8,0.1-1.1,0.4c-0.6,0.7-1.1,1.4-1.4,2.3c-0.6,1.9-0.6,3.9-0.6,5.8
	c0.1,1.7,0.2,3.3,0.4,4.9c0,4.1,0.1,8,0,12c0,5-0.1,10-0.2,15L442.8,54.1L442.8,54.1L442.8,54.1z M467,93.3h2.6
	c0.2-0.1,0.6-0.2,0.8-0.2c1.9-0.1,3.8-0.2,5.7-0.4c2.5-0.1,5-0.4,7.5-0.5c1.7,0,3.2-0.5,4.8-1.1c1.7-0.7,2.4-2,2.4-3.7
	c0-1.2-0.2-2.6-0.4-3.9c-0.2-1.4-1.1-2-2.5-2.4c-1.4-0.4-2.9-0.5-4.3-0.5h-9.8c-0.8,0-1.5-0.1-2.4-0.2c-0.5-0.1-0.7-0.5-1-0.8
	c-0.2-0.7-0.5-1.4-0.5-2.1c0.1-1.8,0.1-3.6,0-5.4V69c0.1-4.3,0.4-8.6,0.1-13c0-1.2,0.4-2.4,0.6-3.6c0.1-0.7,0.6-1.1,1.2-1.4
	c0.7-0.2,1.4-0.4,2.1-0.5c2.4,0,4.8-0.1,7.2-0.2c1.5,0,2.9-0.5,4.2-1.4c0.8-0.6,1.2-1.4,1.2-2.4c0-1.2,0-2.4-0.2-3.6
	c-0.1-0.8-0.5-1.5-0.8-2.4c-0.2-0.5-0.6-0.8-1.2-0.8c-1-0.1-1.9-0.2-2.9-0.2c-2.9,0-5.7,0-8.6,0.4c-0.7,0.1-1.5,0-2.3-0.4
	c-0.6-0.2-0.9-0.6-0.9-1.2v-3.9c0.1-2.9,0.1-5.7,0.2-8.7c0.1-1.4,0.5-2.9,1.1-4.1c0.4-1,1-1.5,2-1.5c3.2-0.1,6.4-0.2,9.7-0.2
	c0.7-0.1,1.4,0,2.3-0.1c0.7,0,1.5-0.1,2.3-0.6c1.1-0.8,1.8-1.8,1.9-3.2c0.1-1.2,0.1-2.5,0.1-3.7c0-0.5-0.1-0.9-0.5-1.3
	c-1.3-1.5-2.9-2.6-5-2.5c-1.1,0-2.3,0.1-3.5,0.1h-8c-0.1,0-0.2-0.1-0.5-0.1c-2.4-0.2-4.8-0.5-7,0c-1.1,0.1-2.1,0.4-2.9,1.2
	c-1.1,1.5-1.9,3.2-2.1,5c-0.2,1.8-0.4,3.5-0.4,5.2c-0.1,8.7-0.2,17.4-0.2,26.1c-0.1,6.9,0,13.8,0,20.9c0,6.4-0.1,12.9,0.1,19.4
	c0.1,1.5,0.6,2.7,1.3,4.1c0.5,0.7,1.1,1.2,1.9,1.5C464,92.3,465.5,93,467,93.3L467,93.3L467,93.3z M349.7,120.8
	c-0.8-1.4-2.3-2.9-3.5-4.1l-2-2c-1.2-1.1-2.5-2.3-2.5-3.7c0.1-1.6,0.6-3.7,2.8-3.7c1,0,2,0.3,2.5,1.1l0,0c0.4,1,0.9,1.9,1.1,2.9
	c0.2,0.7,0.4,0.9,1,0.9c1,0,1.4-0.4,1.4-1.3v-0.2c0-3.2-2.2-6.3-6-6.3c-0.1,0-0.2,0-0.2,0h-0.5c-2.8,0.3-5.1,3.3-5.1,6.3
	c0,3.2,2.4,5.2,4.3,6.9c0.7,0.6,1.4,1.2,1.7,1.7l0.8,1c1.2,1.6,2.8,3.5,2.8,5.2c0,2.2-1.9,3.2-3.7,3.2c-0.2,0-0.6-0.1-0.8-0.2
	c-0.2-0.1-0.5-0.2-0.8-0.2c-1.2-0.5-1.8-3-1.8-4.2v-0.9c0-0.1,0-0.2,0-0.4c0-0.2,0-0.4,0-0.5v-0.2c0-0.9-0.8-1.5-1.4-1.5
	c-1.2,0-1.4,2-1.4,2.6v0.5c0,5.2,2.6,7.9,6.8,7.9c0.7,0,1.3-0.1,1.9-0.2c2.3-0.6,4.2-3.7,4.2-5.5v-0.2c0-1.5-0.5-2.9-1.3-4.2v0
	L349.7,120.8L349.7,120.8z M369.5,105.3c-0.3-0.3-0.5-0.4-0.9-0.4c-1.2,0-1.4,0.8-1.4,1.5v0.3c0,0.5,0.1,2,0.1,3.9v0.5
	c0,1.3,0,2.8-0.1,4.4c-0.4,0-0.4,0-0.9,0c-0.9,0-1.8,0-2.8,0.1c-0.8,0-1.5,0-2.3,0V115c0-1.3,0-2.6,0-3.9v-5.3
	c0-0.7-1.1-1.1-1.4-1.1c-0.4,0-1.3,0.3-1.3,0.9v4c-0.1,0.7-0.1,2.2-0.1,3.2c0,1.3,0.1,2.5,0.1,3.6c0.1,1.2,0.2,2.5,0.2,4.1v0.8
	c0,1,0,2,0.1,2.8c0,1.1,0.1,2.1,0.1,3.7c0,0.4,0,0.8-0.1,1.1c0,0.2-0.1,0.5-0.1,0.8c0,1.1,0.4,1.9,1.2,1.9c0.3,0,1.1-0.3,1.4-0.8
	c0-0.3,0.1-0.7,0.2-1c0.1-0.4,0.1-0.8,0.1-1.3c-0.1-1.5-0.1-2.7-0.1-3.6c0-1.2,0-2,0-2.6c0-0.3,0-0.6,0-0.8c0-1.2,0-2-0.1-3
	c0.1,0,0.2,0,0.4,0h0c0.3,0,0.6-0.1,1-0.1h0.7c0.3,0,0.7,0,1.1,0h1.1c0.4,0,0.8,0,1.3,0.1c0.2,2,0.3,3.6,0.3,5.5v6.5
	c0,0.7,1.1,0.9,1.6,0.9c1.3,0,1.3-0.9,1.3-2.3v-0.3c0-0.2,0-0.4,0-0.6v-0.2c0-0.6-0.1-1.6-0.1-2.9v-1.9c0-1.5,0-2.5-0.1-3.3
	c0-0.5,0-1.1,0-1.4v-1.6c-0.2-0.5-0.2-0.8-0.2-1.2v-0.3c0-0.9,0-2.1,0.1-3c0-0.8,0-1.6,0-2.4c0-1.7-0.2-3.1-0.6-4.3L369.5,105.3
	L369.5,105.3z M393.6,105.5c-1.9-0.7-3.4-1.1-4.9-1.1c-7.8,0-10.3,5.5-10.9,13.4c0,5.7,1.9,13.9,10.9,13.9c1,0,1.8-0.1,2.6-0.2
	l2.1-0.9l1.4-0.8l0.7-0.6c0.5-0.4,0.9-0.8,1.3-1.3c1.7-2.3,2.5-5,2.5-7.7c-0.1-1-0.1-1.9-0.1-2.9c0-1.4,0-2.7-0.2-3.9
	c-0.2-1.1-0.7-2.4-1.4-4.2C396.9,107.3,395.2,106.1,393.6,105.5L393.6,105.5L393.6,105.5z M392,107.8c2,0.5,3,2.3,3.7,4.6v0l0.3,1
	l0.3,1.9c0.2,0.9,0.3,1.7,0.3,2.4c0,5.7-1.3,7.6-2.5,8.8l-0.5,0.4c-1.6,1.3-2.2,1.8-4.9,1.8c-3.8,0-6.7-2.8-7.3-5.7l-0.1-0.7
	c-0.2-1.3-0.5-2.5-0.5-3.4v-0.4c0.1-0.8,0.2-1.4,0.2-2.2c0.1-1,0.1-2,0.4-3.2c0.8-3.5,3.3-5.8,7.5-5.8
	C389.5,107.3,390.9,107.5,392,107.8L392,107.8z M413.4,104.9c-0.4,0-0.8-0.1-1.3-0.1c-0.4,0-1,0-1.3,0.1c-0.2,0-0.2,0-0.4,0
	c-0.1,0-0.2,0-0.3,0c-0.4,0-0.7,0-1,0h-0.6c-0.7,0-1.5,0-2,0.9v1.8c0,0.2,0,0.5,0,0.7v1.1l0,1.4c0,1,0,2.1,0,3.2
	c0,1.7,0,3.5,0.1,4.8v0.4c0,0.8,0.1,1.6,0.1,2.2v1.4c0,0.5,0,1.2,0,1.8v0.7c0,0.8,0,1.5,0.1,2.3l0.1,2.2c0.1,0.9,1,1.4,1.6,1.4h0.2
	c0.2,0,0.4-0.2,0.5-0.2l0.3-0.3c0.1-0.1,0.2-0.3,0.2-0.5c0-0.2,0-0.5,0-0.9c0-0.3,0-0.7,0-1c0-1.1-0.1-2.2-0.2-3.1v-3.4
	c0.9,0.1,1.5,0.2,2.1,0.2c2.9,0,7.3-1.5,7.3-6.8v-1c0-1.7,0-2.2,0.1-2.5v-0.4C418.8,106.6,416.9,105.4,413.4,104.9L413.4,104.9z
	 M409.2,107.8c0.2,0,0.4,0,0.6-0.1l1-0.1h0.3c0.1,0,0.2,0,0.3,0c0.4,0,0.7,0,1,0c3.1,0,3.6,1.5,3.6,4.5v2.4c0,2.1-0.6,4.5-4.7,4.5
	c-0.5,0-1-0.1-1.8-0.2l0-0.2c-0.1-1.1-0.2-2.4-0.2-3.5v-0.4c0-0.8,0-1.4,0-2L409.2,107.8L409.2,107.8z"/>
</svg>
