<svg xmlns="http://www.w3.org/2000/svg" class="mx-auto mt-2 w-48 md:mx-0 md:mt-0" viewBox="0 0 547.3 41.4"><path d="M229.1 14.7c0 7.4-5.2 11.8-14 11.8h-10.6v11.9h-1.7V3h12.3c8.8 0 14 4.3 14 11.7Zm-1.6 0c0-6.4-4.4-10.1-12.3-10.1h-10.7v20.3h10.7c8 0 12.3-3.7 12.3-10.2Zm35.6 23.7-8.7-12.2a23 23 0 0 1-3.9.3H240v11.8h-1.8V3h12.3c8.8 0 14 4.3 14 11.7 0 5.7-3 9.6-8.4 11l9 12.7h-2Zm-12.5-13.5c8 0 12.3-3.7 12.3-10.2s-4.3-10.1-12.3-10.1H240v20.3h10.6Zm20.4-4.2c0-10.3 7.8-17.9 18.2-17.9s18.3 7.6 18.3 17.9-7.9 17.9-18.3 17.9-18.3-7.7-18.3-18Zm34.7 0c0-9.4-7-16.3-16.5-16.3s-16.5 7-16.5 16.3 7 16.3 16.5 16.3 16.5-7 16.5-16.3ZM316.8 3h13.6c11.3 0 18.8 7.4 18.8 17.7s-7.5 17.7-18.8 17.7h-13.6V3Zm13.5 33.8c10.5 0 17.2-6.8 17.2-16.1s-6.7-16.1-17.2-16.1h-11.8v32.2h11.8Zm27.9-13.3V3h1.7v20.4c0 9.2 4.4 13.6 12.2 13.6s12.2-4.4 12.2-13.6V3h1.6v20.5c0 10-5.2 15-13.8 15s-13.9-5-13.9-15Zm36.8-2.8c0-10.3 7.8-17.9 18.2-17.9a17 17 0 0 1 12.3 4.7l-1 1.1c-3.2-3-7-4.2-11.2-4.2-9.5 0-16.6 7-16.6 16.3S403.8 37 413.3 37c4.2 0 8-1.3 11.1-4.3l1 1.1c-3 3.2-7.4 4.8-12.2 4.8a17.6 17.6 0 0 1-18.2-18Zm45.8-16.1h-13V3h27.6v1.6h-13v33.8h-1.6V4.6ZM462.1 3h1.7v35.4h-1.7V3Zm11.1 17.7c0-10.3 7.8-17.9 18.2-17.9s18.3 7.6 18.3 17.9-7.8 17.9-18.3 17.9-18.2-7.7-18.2-18Zm34.8 0c0-9.4-7.1-16.3-16.6-16.3s-16.5 7-16.5 16.3S482 37 491.4 37 508 30 508 20.7ZM547.3 3v35.4h-1.4L520.8 6v32.3H519V3h1.4l25.1 32.2V3h1.8ZM45.4 3h8.3c3.8 0 6.7.3 8.4 1a9 9 0 0 1 6 8.7 9 9 0 0 1-4.2 7.9c-2.6 1.6-6.3 1.8-11.3 1.8H49v16.9h-3.7V3ZM49 6.5V19h6c3.1 0 5.6-.2 7.2-1.5 1.2-1 2.1-3 2.1-4.8S63.3 9 62 8c-1.6-1.2-3.8-1.4-6.6-1.4H49ZM101.4 26c0 7.6-5.9 14-14 14s-14-6.4-14-14 6-14.3 14-14.3 14 6.6 14 14.2ZM77 26a10.4 10.4 0 1 0 21 0c-.2-6-5-11-10.7-11S77 20 77 26Zm30.3-24h3.4v37.3h-3.4V2ZM122 4.2c0 1.6-1.3 2.9-2.9 2.9s-2.8-1.3-2.8-2.9 1.3-2.8 2.8-2.8 2.9 1.2 2.9 2.8Zm-4.6 8.2h3.5v26.9h-3.5V12.4Zm13.6-10h3.5v10h5.5v3h-5.5v23.9h-3.4V15.5h-4.8v-3h4.8v-10Zm18.2 1.8c0 1.6-1.3 2.9-2.9 2.9s-2.8-1.3-2.8-2.9 1.3-2.8 2.8-2.8 2.9 1.2 2.9 2.8Zm-4.5 8.2h3.4v26.9h-3.5V12.4Zm10.2 21.3c1.7 1.9 3.6 3 5.6 3 2.6 0 5-2 5-4.5 0-1.6-1-3-2.3-3.7-6.2-3.5-9.3-5-9.3-9.6 0-4.3 3.3-7.2 7.4-7.2 3 0 5.1 1.4 7.4 3.7l-2.2 2.2c-1.6-1.5-3.2-2.5-5.4-2.5s-4 1.5-4 3.6c0 1.3.8 2.8 2 3.5 6.2 3.6 9.6 5 9.6 9.8 0 4.2-3.2 8-8 8-3 0-6-1.4-8-3.9l2.2-2.4Zm27.6-4c2.6 0 4.2 1.7 4.2 4.2 0 2.9-2 4.7-4.4 4.7S178 36.8 178 34c0-1.5.6-2.7 1.7-3.8l.6.6c-1 1-1.4 2.1-1.4 3.2 0 2 1.5 3.7 3.5 3.7s3.6-1.6 3.6-3.8c0-1.6-1-3-2.6-3.3v2.7h-.8v-3.6Zm4-6.4v.8h-4.3c-.7 0-1.3.6-1.3 1.4 0 .6.3 1.1.8 1.4.5.5 1.3.6 2.2.6h2.6v.8h-6.2v-.8h1.1c-.8-.6-1.2-1.3-1.2-2.1 0-1 .5-1.6 1.5-2-1-.5-1.5-1.3-1.5-2.2 0-1.3.9-2.2 2.7-2.2h3.6v.8h-3.4l-1 .1c-.6 0-1.1.6-1.1 1.4 0 .8.4 1.4 1.2 1.7.5.2 1 .3 1.6.3h2.7Zm0-6.8v.8H178v-.8h3.4a3.1 3.1 0 0 1-1.2-2.5c0-1.8 1.5-3.1 3.2-3.1s3.3 1.4 3.3 3.2a3 3 0 0 1-1.3 2.4h1.1Zm-3-4.8c-1.4 0-2.6 1-2.6 2.4 0 1.3 1 2.5 2.5 2.5 1.4 0 2.5-1 2.5-2.5s-1.2-2.4-2.5-2.4Zm-5.3-2.4v-.8h3.5V4.2h-3.5v-.8h8.3v.8h-4v4.3h4v.8h-8.3Z" class="fill-woodsmoke-900 dark:fill-woodsmoke-200"/><path fill="#00a0d7" d="m8.8 32.6-.9.8-.5.5-.5.6c-.2 0-.3.2-.5.4l-.6.6-.3.3-.2.1-.6.4-.3.2-.5.3.5-.8.4-.6c0-.2.2-.4.3-.5l.2-.3c0-.2.2-.4.3-.5l.2-.4.3-.5.2-.2.1-.5v-.1l.2-.5.2-.5.1-.5.2-.5.2-.6.1-.5v-.1l-.2.2-.3.4-.2.2-.2.3-.2.2a8.6 8.6 0 0 1-.4.5l-.2.2-.1.2-.2.3a4.2 4.2 0 0 0-.4.4l-.2.3-.2.2-.1.1-.2.3-.1.1a8.6 8.6 0 0 1-.4.5l-.2.2v-.1l.1-.2 1.1-2.2.7-1.2 1-2.1v-.1h.2l.7.9h.1l.1-.3.6-2 .1-.3.1.2v1l.1.7v.7l.1.7v.8l.1.7v1.4h.1l.2-.1.6-.5v-.2L9 29l-.6-2.3v-.9c0-.3.3-.4.4-.6l.8-1 .4-.5-1.7.6-1.1.4-1.5.5c-.4 0-.7.2-1 .3h-.2l.7.8s0 .1 0 0l-.1.1-.2.5-.3.5v.3l-.3.4v.2l-.2.4-.3.6v.2l-.3.4v.2l-.2.5-.1.2-.2.4-.2.5a9.1 9.1 0 0 0-.5 1v.1V31l.1-.1V30l.1-.1v-.7l.1-.4v-.6l.1-.2v-1l.1-.2V26l.2-.4.2-.5.1-.4.2-.5.1-.3.2-.4.1-.3.2-.5v-.3l.2-.4.2-.4v-.1l-.3.1-2 1-2.1 1-.2.1.4-.7.8-1.7.9-1.7.5-1.2h.1l1.2 1.9.1.2v.1l-1.3 1-.5.4-.2.1-.2.2-.1.1h-.1v.1h-.1v.1h-.1.1v-.1h.2v-.1l.1-.1.2-.1.2-.2.4-.3 1-.7.4-.4.1.1.5.8.7 1.1.2.3-.1.2-.2.2v.1l-.2.2v.1l-.2.1h.1v-.2H5l.1-.2h.1l.2-.2.1-.2h.1l.4.8.1.1h.1l1-2 .8-1.6.3-.6h.1a453.3 453.3 0 0 0 1.8 3.8l.6 1.5.4.8v.1l-.8 4.2-.2.8v.2l-.4 1.7v.1h-.1l-1-.4Z"/><path fill="#9a3841" d="M13.5 33.2v-.1l.3-1 .3-.9.1-.4v-.2h.1l1.1-3.5V27h.2l.7.8v-.3l-.4-1.5v-.1l.1-.6 1-3.2.5-1.4.7-2.4.1-.1h1l-1-.5H18l-.6.4-1-.9s-.2 0 0-.1h.8c.2 0 .3 0 .4.2.2 0 .3 0 .5.2h.1l.7-.5.7-.5.2.5.4 1.1v.1l.2.1v.4l.8-1.4.9-1.7.9-1.7.5-1s0-.1 0 0v6.5l-.1 1v.7h-.1l-.8-.6-1.2-1a35.4 35.4 0 0 0-.9-.7l.5 5v.4-.1l-.4-.8V23h-.1v-.2l-.1-.1v-.2l-.1-.1-.4-1v-.1l-.2.4-.6 2.9-.7 2.8v.2l-1.4 1.7-.3.3v.1h-.1v.1l-.6.6-1 1.2-.8 1-.4.5h-.1Z"/><path fill="#00a0d7" d="M4.9 14h-.4v.1l-.4.6-.2.2-.4.5-.1.3-.4.5-.2.3-.1.2v-.5l.1-.2v-.2l.1-.2v-.2l.1-.2V15l.1-.2v-.2l.1-.2v-.2l.1-.2h-.5l-.2-.1h-.7l-.2-.1H.9v-.1H.4l.3-.3.4-.2.3-.2c.1 0 .2 0 .3-.2l.3-.1.3-.2.3-.2c.2 0 .4-.2.5-.3l.3-.1.3-.2v-.1l.1-.3.1-.4v-.1H4l2-.8 1.6-.7H8l.7 3 .5 2.1v.1H7.8l-.5-.1-1-.1L5 14h-.2Z"/><path fill="#25101b" d="M16.4 29.8h.1l.5 3 .7-2.9.4-2v-.2h.1l.3-.5 1.2-1.4 1.1-1.3h.1l.1.7.2 2 .1 1.1v.1l-.7.8-1 1-.3.4-.7.8-1 .9-.5.6-.2.2-.4.4-1 1-.5.4-1 1-.6.5-1 1-.5.5-.2.2.6-1.1.7-1.2v-.2l.4-.6 1.4-2.5 1.3-2.3.3-.3v-.1Z"/><path fill="#e49b48" d="M6.8 4.7V3.3h.8l.3-.1H9l.3-.1h.2l-1-.8h.8l.1.1h.8l.3.1h1.1l.3.1h.8l.4.1h.5-.9l-.2-.1h-.4l-.3-.1h-.4l-.2-.1H11l-.3-.1H10l-.2-.1h-.4L9 2.1h-.2L8.5 2h-.9l-.2-.1h-.1l.3-.1.5-.2.7-.2.7-.2.7-.3.7-.2.5-.2.8-.2.7-.2.2-.1.2.4.5 2.2v.3H13l-1 .2h-1.4l-.7.1h-.3l.6.5.9.7v.1l-1-.4h-.2l-.4.1H9l-2 .5h-.3Z"/><path fill="#25101b" d="m15.7 41.2.4-.7.8-1.3v-.1l.3-.5 1.7-2.8 1.5-2.5 1.2-2v-.1h.1l.6 1.6-.1.4-.4 1-.3 1-.3.7v.1l-1 .9-.7.7-1 1-.8.8-1.3 1.2-.6.5Z"/><path fill="#9a3841" d="M22.3 32.9v-.5l.4-.9.8-2.4.8-2.2v-.2l-.5 1-2 3.3-.1.1V31l1.4-3.3v-.2l.3-.5 1.2-2.8.8-2 .8-1.8v-.1.1l-.5 2.9-.6 2.6v.3l-.2.7-.2.8-.2.7-.1.7-.1.4-.1.6-.1.5-.1.5-.2.8-.2.7-.1.8-.2.7-.1.7v.3H23V35l-.4-.9-.3-.8-.2-.4Z"/><path fill="#972863" d="M21.6 31.2v.1l-.3.5-.3.4-.2.4-.2.3-.1.2-.2.3c0 .2-.2.3-.3.5l-.2.4-.3.4-.2.4-.3.5-.3.5-.3.4-.2.4c0 .2-.2.3-.3.5l-.2.4-.3.5-.2.4-.2.3v-1.2l.1-.3v-.8l.1-.2a27.5 27.5 0 0 0 0-.6v-.2l.1-.4v-.7l.1-.2v-.7l.1-.2v-.7l.1-.1 2.9-1.1 1-.4Z"/><path fill="#521e22" d="M26.3 20.3v.1l-.2.2v.3l-.2.3v.1l-.2.4-.2.4-.1.3-.2.3v.2l-.1.2v.2l-.2.3-.2.3v.4l-.1.1-.2.4-.2.4-.2.4v.3l-.1.1-.2.4-.1.3-.1.3-.2.3v.2l-.1-.2V24l.1-1.7v-2.8h.3l.2.1h.5l.1.1a38 38 0 0 1 1.8.4h.1v.1Z"/><path fill="#275550" d="m8.8 32.6.6.3.4.2.4.2 1.6.7-.2.4-.4.5-.5.6-.6.7-.4.6-.4.4-.4.5-.4.5-.4.5-.5.6v-.5l.2-.6v-.4l.1-.4V37l.2-.4v-.4l.1-.4v-.4l.1-.3V35l.1-.4.1-.4v-.3l.1-.4.1-.4v-.4Z"/><path fill="#972863" d="M26.3 20.3v.6l.1.4v.4l.1.2v.4l.1.2v.5l.1.3v.6l.1.2v.7l.1.3v.5l.1.4v.6l.1.1v.6l.1.3v.6l.1.3v.5l.1.4v.5l-1-1.5-.7-1.1-.6-1-.1-.1v-.5l.1-.2v-.2l.1-.2v-.3l.1-.1a14.4 14.4 0 0 1 .1-.6v-.3h.1v-.4l.1-.2V23l.1-.2v-.2l.1-.3V22l.1-.2v-.4l.1-.1v-.1l.1-.3v-.4l.1-.2v-.1Z"/><path fill="#1c518a" d="M7.5 14.3h.1a2 2 0 0 1 .4 0h.1l.2.1H9v.1l-1.2.7-1.6 1H6l-.7-1.3-.1-.2-.1-.1.1.2a159.3 159.3 0 0 1 .8 1.5l-1.9 1.1-1.1.7-.2.1V18l1.6-3.3.3-.6V14h.4c.6 0 1.1 0 1.6.2h.7Z"/><path fill="#25101b" d="M24.3 19.7h-.5l-.4-.2v-2.1l1.6-.7h.2c0 .2.2.4.4.6l.7 1.1.8 1.4.4.6H27l-.7-.2H26V20h-.4l-.1-.1h-.2l-.3-.1-.3-.1h-.4Z"/><path fill="#972863" d="m25.1 15.4-.3-.7-.3-.5-.4-.8v-.1l-.1-.1-.7-1.4-.5-1.1-.4-.7.3-1v-.2h.1l2 1.3h.1v1.5l.1.5v2.3l.1.5v.5Z"/><path fill="#00a0d7" d="m4.8 14.2-.2.4-.9 1.8-.8 1.7v.1L3 18l.3-.1.2-.2.3-.1.5-.3.2-.1.3-.2.2-.1.5-.3.4-.2H6V16l-.3-.4-.2-.3a5.4 5.4 0 0 0-.3-.5l.3.4.3.4.1.3.2.2v.2l1 1.7v.2H5.6l-1.5.1H2.5l-.3.2-.3.2-.6.3-.3.2-.3.2.3-.4.2-.3.2-.3.3-.3.2-.3.2-.3.2-.2.3-.3c0-.1 0-.2.2-.3l.2-.3.2-.3.2-.3.2-.2v-.1l.3-.3v-.1l.3-.2.1-.3.2-.1.1-.2.1-.2Z"/><path fill="#ecbb45" d="M13.8 3v-.5l-.1-.1V2l-.1-.2v-.2l-.1-.1v-.4l-.1-.1V.7l-.1-.1V.4l-.1-.2V0l.4.5 1.3 2 .1.1.1.2.2.3.6.8.3.6v.2l-.8 2-.4.9-.2-.6-.5-1.9-.2-1.2v-.1H14v-.2l-.1-.6v-.1Z"/><path fill="#2d3071" d="M2.7 18.4h2.6l.7-.1h1.2l-1 1.5-1.5 1.7v.1h-.1l-.3-.5-.2-.3v-.1l-.5-.7-.3-.5-.5-.8-.1-.2-.1-.1h.2Z"/><path fill="#3e4273" d="m21.6 31.2-.3.2H21l-.3.2-.5.2h-.3l-.4.3h-.3l-.3.2-.3.1-.4.1-.2.1h-.2l-.1.1-.4.2h-.2l.5-.5.3-.3.3-.3.3-.4.2-.2.3-.4.3-.3.3-.3.3-.3.3-.3.3-.3.2-.3.4-.3.2-.3h.1l.2 2.2v.6Z"/><path fill="#2d3071" d="m6.6 28-.4.7-.6 1.3-.7 1.2-.6 1.2-.6 1.3-.1.1v-.1l.2-.9.1-.7.2-.8.2-.6.1-.8.2-.9.2-.6.1-.6.2-1v-.3l.1-.1.8.9.6.6Z"/><path fill="#8cbd42" d="m7.9 9.2-.3.2-.6.2-1 .4-.7.3-.5.2-.5.2h-.1l.5-2.2v-.1l.6-.5.2-.2h.2l1.2.8.9.6v.1Z"/><path fill="#d97246" d="m7.5 5.8-.6-.2-.8-.2-.6-.2L5 5h4l1.3.1h1.4l.3.1.4.3v.1l-2.4.8-.6-.1-1.9-.6Z"/><path fill="#972863" d="M14.3 30.6v.1l-.1.1-.4.5-.5.7c0 .2-.2.4-.3.5l-.5.7-.5.7v.1h-.1v-.2l.4-2.6.2-2c.1-.1.1 0 .2 0l.3.2 1.1 1 .2.2Z"/><path fill="#1b191f" d="M22.2 5.7c0 .2.2.4.3.5l.6 1c0 .2-.2.4-.3.5l-.5.7h-.1c-.3 0-.5-.2-.7-.3l-.6-1.3-.2-.4V5h.2a56.4 56.4 0 0 1 1.2.6v.1Z"/><path fill="#d97246" d="m19.8 2.3-.4.2-.8.6-.6.4h.4l.4-.2h.3l.6-.2.6-.1.6-.2.6-.1.5-.1h.3l.3-.2v.1l-.8.4-.7.4-.3.1v.1h-.1l-1 .3-2.4.8h-.1v-.8l.1-.1.5-.2v-.1l-.6-.7v-.2h.8l1.3-.2h.4Z"/><path fill="#de6e70" d="M25.1 16.7H25l-.5.3c-.3 0-.5.2-.7.3l-.4.1v-4.7h.1l.2.6.2.4.1.4.2.5.2.4.3.7c0 .1 0 .3.2.4 0 .2 0 .4.2.5Z"/><path fill="#ecbb45" d="M12 5.4h-1.8l-.1-.1H7.4v-.1H5l.2-.1h.3l.3-.1.4-.1h.3l.2-.1H7l.1-.1h.4l.1-.1H8l.1-.1h.4l.1-.1H9l.1-.1h.4l2 .7h.1l.4.4s.1 0 0 0Z"/><path fill="#8fbd5d" d="M7.5 5.8V6L8 8.7v.4h-.2l-.4-.3-.4-.3-.3-.2-.3-.2-.3-.3-.3-.2v-.1l.4-.4.6-.5.8-.8ZM5 8.4v.4l-.1.3v.1l-.1.2v.2h-.1v.2l-.1.3v.2l-.1.3v.1l-.3.1-1 .4-.7.2-.7.3-.5.2-.5.2V12l.2-.1.4-.4.3-.2.3-.3.2-.1.4-.4.4-.4a8.7 8.7 0 0 1 .6-.5l.3-.2.3-.2.3-.3.2-.2.3-.3Z"/><path fill="#ecbb45" d="M19.8 2.3h-1.2l-.2.1h-.7l-.1.1h-.4c-.1 0 0 0 0 0l.6-1.7V.7h.1l.6.3.5.3.4.2.4.3a5.4 5.4 0 0 1 .6.4h-.7Z"/><path fill="#168f51" d="m7.5 5.8-.2.2-.4.4-.2.2-.3.2-.2.2-.2.3c-.1 0-.2 0-.2.2l-.2-.2c-.2 0-.3-.2-.5-.4l-.5-.4-.3-.3-.4-.3h3.6Z"/><path fill="#3e4273" d="m16.4 29.9-.2.3-.3.4-.2.5-.2.3-.2.3v.1l-.3.4-.1.3-.2.4-.1.1-.2.4-.3.4-.2.4c0 .2-.2.3-.3.5l-.1.3-.3.4-.1.2V35l.2-.4V34l.1-.4v-.3h.1l.2-.3.3-.3.1-.2.2-.2v-.1l.2-.2a7.4 7.4 0 0 1 .4-.4l.2-.2.2-.2.1-.2.1-.2.3-.3.1-.1.2-.2.2-.3Z"/><path fill="#7d2a38" d="m22.2 5.7-.2-.2-1-1.8s-.1-.1 0-.2l.5.5.5.4.4.4.4.3.4.3.5.5.5.3c0 .2.2.3.4.4l.2.2.4.3-1.2-.6-1.7-.8Z"/><path fill="#1b191f" d="m24.9 10.1-.5-.3-.4-.3-.4-.2-.4-.2-.4-.3.2-1.4v-.2h.2c.1.4.3.6.5.9l.7 1 .5 1Z"/><path fill="#d97f35" d="M18 .7v.1l-.2.2v.2l-.2.2v.3l-.1.1-.1.2v.1l-.2.3v.2h-.9c-.2 0-.3-.1-.4-.3l-.2-.1.3-.2 1-.6 1-.7Z"/><path fill="#e49b48" d="m15.7 2.2-.7.5-.1-.2-.3-.4-.1-.2-.3-.3c0-.1 0-.2-.2-.3l-.2-.3-.1-.2-.2-.3-.1-.1-.2-.3.5.4.3.3c.2 0 .3.2.4.3l.4.3.4.4.3.3h.2Z"/><path fill="#46213c" d="m23.6 12.7-.2-.2-.6-.7-.6-.7.2-1V10h.1l.1.3.4.7.3.7.4.7.3.6v.1c0-.2-.2-.3-.3-.4Z"/><path fill="#de6e70" d="m20.8 3.5.2.3.3.4.2.3.2.4.2.3.2.4-.6-.2-.7-.4V3.4Z"/><path fill="#00a0d7" d="m5.6 7.6-.2.2-.3.3-.3.3v-.5l.2-.5v-.2a12.5 12.5 0 0 1 .6.4Z"/><path fill="#495a6a" d="M7.5 14.3H6.2l-.2-.1H5c0-.1-.1 0-.2 0V14H6l.1.1h1l.1.1h.2Z"/><path fill="#8fbd5d" d="M7.5 5.8h-.9.8Z"/><path fill="#495a6a" d="M15.6 41.3Z"/><path fill="#00a0d7" d="M3.6 33.9Z"/><path fill="#25101b" d="M11.7 38.1Z"/><path fill="#972863" d="M12 34h-.1Z"/><path fill="#00a0d7" d="M4.8 14.2Z"/><path fill="#972863" d="M25.1 15.4Z"/><path fill="#e49b48" d="M13.2 0Z"/><path fill="#46213c" d="M24 13.2Z"/><path fill="#972863" d="M27.5 29.9Z"/><path fill="#7d2a38" d="M20.8 3.5Z"/><path fill="#00a0d7" d="M2.3 32.9z"/><path fill="#495a6a" d="M15.8 41.1Zm0 .1Zm0 0Zm-.1 0Zm0 0Zm0 .1Z"/><path fill="#25101b" d="M15.6 41.3Z"/><path fill="#1b191f" d="M25 10.1h-.1Z"/><path fill="#1c518a" d="m11.9 34-.6-1-.7-1.3-.3-.6v-.8l.1-.3v-.2l.1-.2v-.3l.1-.2v-.4l.1-.2v-.2l.1-.2v-.3l.1-.2v-.2l.1-.3v-.4l.1-.3.1-.3.2 1.4v1.2l.2 1.2a770.6 770.6 0 0 0 .2 2.4V34Z"/><path fill="#de6e70" d="M11.9 34v-1l-.1-.3V32l-.1-.3V31l-.1-.4v-1l-.1-.2v-.8l-.1-.3v-.8l-.1-.2V26h-.1c.3.4.4.8.6 1.3l.8 1.7v.5h-.1v.5l-.1.3v.5l-.1.2v.4l-.1.2v.7l-.1.2v.4s-.1 0 0 .2H12v.7l-.1.2v.1Z"/><path fill="#2d3071" d="m5.8 25.2.8-.3.7-.2.6-.2.3-.2.1.1V26L7 27.4l-.2.4h-.1v-.1l.9-1.7v-.1h-.4l-1.9.5v-.2l.4-.9Zm-.3-2.1-.1-.2-.3-.4-.3-.6-.2-.2.2-.2L7.9 20l.4-.2c.1 0 0 0 0 0 0 .2-.2.4-.3.5l-.7.9-.9 1-.7.8-.1.1Zm4.7.6-.1-.2-.1-.2-.2-.5-.1-.2-.3-.6-.3-.6-.2-.5c0-.3-.2-.5-.3-.7l-.1-.3 1.6 1.5 1.6 1.7s.1 0 0 0l-.2.2-.8.2-.4.2h-.1Zm-1.8 2.9v-.1h.1v.3l.1.2.1.4v.3l.2.4v.3l.1.4.1.3v.4l.1.2.1.4.1.3.1.4v.3l.2.4v.3l-.4.3-.2.2-.3.2v-1.3l-.1-.3v-1.2l-.1-.2v-1.2l-.1-.3v-1.4Z"/><path fill="#275550" d="m12.6 29-.4-.8-.2-.4-.2-.6-.3-.5-.2-.5v-.4l.4-2.5.1-.1.4 3 .4 2.7v.2Z"/><path fill="#1c518a" d="m5.5 23.1.3-.2v-.1l.1-.1.1-.1.2-.2.1-.2.1-.1.2-.2.2-.2v-.2H7l.2-.2.2-.2.1-.2.2-.2.2-.2.2-.2.1-.2.2-.2.1-.1-.1.3-.1.2-.4.7-.4.8-.4.9-.4.7-.4.7H6l-.4-.5-.1-.3-.1-.1Z"/><path fill="#89c4bc" d="m10.2 31 .3.4.3.6.1.3.3.4.1.2.3.7.2.3.1.1-.6-.2-.6-.3-.5-.2-.3-.2v-.9l.1-.2v-.2l.1-.3v-.2l.1-.2Z"/><path fill="#1c518a" d="M5.2 26.4h.3l.1-.1h.3l.2-.1h.3l.4-.2h.4l.1-.1h.3l-.3.6-.3.6-.3.6v.1h-.2l-.3-.3-.1-.2-.2-.2-.2-.2-.2-.2-.1-.2-.1-.1Zm6.6-3.2v.2l-.1.3v.2l-.1.2v.3l-.1.3v.4h-.1v.3l-.1.3v.3l-.2-.3v-.2l-.2-.2-.1-.4-.3-.6-.1-.2a6 6 0 0 0-.2-.4l.6-.2.2-.1.5-.2h.3Z"/><path fill="#1b191f" d="M6.6 27.9v-.1h.1l.1-.2.2-.1.1-.2.1-.1.3-.4.2-.2.1-.2.2-.1.1-.2.1-.1.1-.2c.1.1.1.3 0 .4v.3l-.3 1-.3.8-.2.6-.3-.3a24 24 0 0 0-.5-.6h-.1Z"/><path fill="#275550" d="m8.3 24.3.4-.1.8-.3.6-.2v.2c-.2 0-.3.2-.3.3l-.2.1-.2.3-.2.3-.2.2-.2.2-.4.4v-1.4Z"/><path fill="#1b191f" d="M5.7 25.2v.3c-.2.1-.2.3-.3.4l-.1.3v.2l-.2-.2-.2-.2-.3-.3v-.1l.7-.2.4-.2Z"/><path fill="#1c518a" d="M8.3 24.3v1.3c.1 0 0 0 0 .1h.1v.9-1.9h-.1v-.4Z"/><path fill="#46213c" d="M4 20.7v.2l-.6.4c-.2 0-.3.2-.4.3l-.3.2.4-.3.4-.3.5-.4Z"/><path fill="#495a6a" d="m2.2 22.2.3-.3h.1l-.4.3Z"/><path fill="#3e4273" d="m10.7 23.5-.4.2h-.1l.4-.2h.1Z"/><path fill="#495a6a" d="M5.5 23.1v.2h-.1l.1-.1Z"/><path fill="#1c518a" d="M8.4 26.6v.2-.2Z"/><path fill="#495a6a" d="m2.2 22.2-.2.1h.1Zm-.2.2h-.2.2Zm3.3 1.1v-.2.2Zm-.5.5.1-.1-.1.1Zm.5-.5-.1.1v-.1Zm-.3.2.2-.1-.2.1Z"/><path fill="#1c518a" d="M8.5 27v.1Z"/><path fill="#495a6a" d="M5 23.8Z"/><path fill="#5a8b86" d="M4.5 24.4v-.1Z"/><path fill="#495a6a" d="M1.6 22.7v-.1Z"/><path fill="#5a8b86" d="M4.4 24.4Zm-.1.2Z"/><path fill="#495a6a" d="M4.8 24Zm-3-1.5Zm-.1.1Zm-.3.2Z"/><path fill="#5a8b86" d="M1.3 23v-.1Z"/><path fill="#46213c" d="M2.6 21.9Z"/><path fill="#5a8b86" d="M4.7 24.2Z"/><path fill="#495a6a" d="M1.6 22.7Z"/><path fill="#1c518a" d="M8.5 27Z"/><path fill="#5a8b86" d="M4.6 24.3Z"/><path fill="#495a6a" d="M1.4 22.8ZM5 23.9Z"/><path fill="#5a8b86" d="M4.1 24.8Z"/><path fill="#1c518a" d="M8.5 27.4Z"/><path fill="#5a8b86" d="M1.1 23Zm3.4 1.4Zm-.3.3Z"/><path fill="#495a6a" d="M4.7 24v.1Z"/><path fill="#5a8b86" d="M1 23.1Zm0-.1Zm.2 0Zm0 0Z"/><path fill="#495a6a" d="M1.4 22.8Zm.1-.1Zm.1 0Zm.4-.4Z"/><path fill="#5a8b86" d="M4.4 24.5Zm-.3.3Zm0 0Zm-.1 0Z"/><path fill="#1b191f" d="M5.8 25.2Z"/><path fill="#5a8b86" d="M4.2 24.7Zm0 0Zm.1-.1Zm0 0Zm0-.1Zm.1 0Zm0-.1Z"/><path fill="#2d3071" d="M8.5 19.8Z"/><path fill="#fbfafa" d="M7.5 29.1Z"/><path fill="#495a6a" d="M4.7 24.2Zm0-.1Zm0 0Zm-3.2-1.3Z"/><path fill="#5a8b86" d="M1.2 23Zm0 0Zm0 0Zm-.2.1Zm0 0Zm0 0Zm0 .1Z"/><path fill="#fefefe" d="m10 6.6.3-.1 1.6-.5.6-.3.4.3 1.2 1 .7.6h.1l.2-.1.3-.3 1-1 .8-.7c.3 0 .5.2.8.4l1.8 1 .8.6v2l.4.4h.1v.1l-.2.3-1.3 2-.8 1v.2l.5 1.9.3.9-.1.1-.8.6-.6.4h-.2l-.7-.4h-.4l-.1-.1h-.3v-.1h-.2v-.1H16l-.3-.2-.8-.4a23 23 0 0 1 0-1.2l.2-.2.7-.5V14l.2-.8h-.1l-2.6-.1h-.2v-1.2l-.1-.5v-.1l-.5-.6-.8-1.2-.1-.1L9.3 9l.4-2h.1ZM18.3 18v.3l-.2.4-.3 1-.2.7v.2h-.2l-2.5.9-.8-.1-2.2-.7h-.1l-.1-.6-.1-1v-1l1.7-.9h.2l.5-.2h.5l.8-.1h1l.2.2.4.3.5.5h.9Z"/><path fill="#972863" d="M21.6 31.2V30l-.1-.2v-.9l-.1-.3v-.2l.2-.4.5-.4v-.3l-1-2.6-.2-.3V23c-.1 0 0-.1 0-.1l-.1-.1V22l-.1-.2v-1l-.1-.2v-1.3l-.1-.2v-.4h.2v.2h.1l.2.2.2.1.2.2.3.2.1.2.2.1.3.3.2.2h.2v.2l.2.1.2.2.2.2h.1v6.2l-.1.2-.2.5v.2l-.2.2v.1l-.2.4-.1.4-.1.1-.2.3-.1.4-.2.4-.1.4Z"/><path fill="#de6e70" d="m11.8 20.7.6.2c.2 0 .5 0 .7.2l.6.1.4.1a16.1 16.1 0 0 0 .7.2v.1l1 4v.2l.1.3.1.5.1.4.2.4v.3-.1h-.1l-.6-.7h-.2l-1-1c-.5-.7-1.2-1.2-1.8-1.8l-.8-.9V23l-1.6-1.5-1.7-1.7v-.1l2.6.7.5.1h.1Z"/><path fill="#7d2a38" d="M19.6 16.4v-.2l-.4-1.2-.3-1-.2-.6.1-.1.6-.8 1-1.5.7-1h.1l.6.7.3.4v.2l-.4 2.1-.8 3.3-.1.6h-.1l.2-1 .2-1-.5.4-.9.6Z"/><path fill="#972863" d="m20.7 17.3.1-.3v-.2l.2-.5v-.5l.1-.1v-.3l.1-.2V15l.2-.4v-.5l.2-.4v-.3l.1-.4v-.2l.2-.4v-.5l.1-.2.1-.4v-.1h.1l.1.2.3.2.2.3.2.2.3.3.2.3-.1.2-.4.7c0 .2-.2.4-.3.5l-.3.6-.3.6-.3.6-.3.6-.3.6c0 .2-.2.3-.3.5l-.2.6-.3.5v-.5l.2-.8Zm.2 7.2h-.1c0 .2-.2.3-.3.4l-.1.2-.2.1-.1.2-.3.3-.1.2-.3.3-.1.2-.2.2-.2.2-.1.2-.3.3-.1.1-.2.2v-.4l.2-.3v-.5l.1-.2v-.3h.1v-.5l.1-.2v-.1l.1-.2v-.3l.1-.1v-.3l.1-.2.1-.4v-.4l.1-.3v-.2l.1-.2v-.3l.1-.2v-.2l.1-.1v-.2l.1-.2.2.3v.3l.2.3.1.2v.2h.1v.2l.1.2.1.2.4.9v.2s.1 0 0 .1Zm-5.1 1.3v-.5l-.1-.3-.1-.3v-.2l-.1-.4-.1-.3-.2-.5v-.4l-.1-.2v-.3l-.2-.3v-.6l.2-.1 1-.4c.3 0 .6-.2.8-.3.2 0 .4 0 .6-.2v.3l-.2.5-.1.3-.1.3v.2l-.1.2-.2.4v.2l-.1.2-.1.5-.1.2v.2l-.2.4v.2l-.1.2-.2.4-.1.5Z"/><path fill="#275550" d="m12.6 29.1.2-.5 1.5-2.6.1-.1v4.7h-.1l-.3-.2-.2-.2-.2-.2-.3-.3-.3-.3-.3-.2-.1-.1Z"/><path fill="#117cb4" d="M16.3 17h-1.7l-.3.1h-.1l-.3.1h-.4l-.4-.1-.6-.4h-.1l2.3-1 .3.1.2.1.4.2.3.2h.1l.1.1h.1l.1.1h.1v.1h.2v.1h.2l.1.1h.1v.1h.1l.2.1h-.9Z"/><path fill="#3e4273" d="M18.2 27.7v.3l-.2.5v.4l-.1.3v.1l-.1.3v.3l-.2.4v.3l-.1.4-.1.4v.2l-.1.2v.3l-.1.1v.4l-.1.1v.1l-.1-.2v-.3l-.1-.2v-.4l-.1-.2v-.4l-.1-.1v-.4l-.1-.3V30l-.1-.2.2-.3.1-.1.2-.2.2-.2.1-.2.1-.1.2-.2a7.4 7.4 0 0 1 .4-.5l.1-.2Z"/><path fill="#89c4bc" d="M14.3 30.6V27l.1-.7v-.5l1 1v.1c0 .2 0 .4-.2.7l-.2.7-.1.4-.2.4-.2.9-.2.5v.1Z"/><path fill="#6d4d88" d="M20.7 17.3v.4l-.2.3v.2h-.3V18l-.1-.2v-.2l-.2-.5-.2-.5v-.2c0-.1 0-.2.2-.2l.3-.3.3-.2.3-.2.4-.3-.1.4v.2l-.1.2v.3l-.1.1v.3l-.1.2v.4Z"/><path fill="#521e22" d="M18.3 18h-.9l.1-.1.3-.2.3-.2.5.2.4.2.3.1h-.9Z"/><path fill="#7d2a38" d="M20.3 18.2h.2v.1l-.1.4v-.5Zm.6 6.3v-.2l-.2-.3-.1-.3-.1-.3v.2l.2.2v.2l.1.1v.1l.1.2Z"/><path fill="#de6e70" d="M21 24.4h-.1v-.7.7Z"/><path fill="#46213c" d="m23.4 19.5.4.1h-.4Z"/><path fill="#7d2a38" d="m20.4 23-.1-.1v.1Zm0 .3V23v.1Zm.1.1v-.1Zm-.2-.6Zm-.1-.1v-.1Zm0 .1v-.1Zm-.1-.2v-.1Z"/><path fill="#3e4273" d="M16.4 29.8Z"/><path fill="#972863" d="M17.3 17Z"/><path fill="#7d2a38" d="M20.3 22.9Z"/><path fill="#3e4273" d="M16.4 29.9Z"/><path fill="#972863" d="M18.2 27.6Z"/><path fill="#fefefe" d="m14.7 15.6-.5.2-.6.3-.5.2-.5.2-.2.1a62.3 62.3 0 0 1-1.6-.9h-.2v-.2l1.3-2.6-1 .6-1.6 1H9V14l-.1-.4-.1-.4-.1-.3v-.2l-.1-.3-.1-.5-.1-.3-.1-.5-.1-.4-.1-.4-.1-.5-.1-.5v-.2l1.2-.4h.2l.2.2.2.2.7.7.3.1a12.7 12.7 0 0 1 .9 0l.2.5.6 1.5v.2l-.4.5v.2l1.1 1.2c.1 0 .3.2.4.1h.9v.2l.3 1.1v.1Z"/><path fill="#89c4bc" d="M9.1 14.5h.1l.3-.2.3-.2.3-.2.5-.2.2-.2.4-.2.2-.1.5-.3-.3.6-.4.8-.4.8-.3.6h-.1L8.9 17l-1.6 1.3L7 18l-.2-.3v-.2l-.2-.1-.1-.4-.3-.3-.2-.4h.2l.3.6v.1h.1l.2-.3.9-.9 1.1-1.1.2-.2Z"/><path fill="#e49b48" d="m10 6.6-.2.3L8 9.1v.1L7.8 9v-.8L7.7 8v-.6l-.1-.2v-.8L7.5 6v-.3h.2L8 6h.2l.5.1.3.1.2.1h.3l.2.1h.1l.2.1Z"/><path fill="#6d4d88" d="M21 24.5v.3l.3.5.1.4.2.3v.1l.1.3v.1l.2.3v.2l.3.4v.1l-.2.2-.4.5-.2.2V28l-.1-.1V27l-.1-.2V26H21v-1.6Z"/><path fill="#d76e35" d="M14 3.7v.1l.1.4.2 1 .1.6s0 .1-.1 0l-1-.2v-.1h.1L12.2 5l-.9-.3h-.1l-.1-.2-.2-.2-.2-.1-.2-.1V4h-.2v-.2l-.2-.1H10l-.1-.1-.1-.2h-.2l-.1-.2h1.8V3H13c.1-.1.2 0 .2 0l.2-.1h.5v.4l.1.2v.1Z"/><path fill="#d97f35" d="M11 4.5h.1v.1h.2l.2.2V5h-.1l-.5-.2h-.3l-.2-.1h-.1l-.2-.1H10l-.5-.2h-.1v-.1h.4V4l.4.1.5.2.3.1Z"/><path fill="#de6e70" d="m21.6 31.2.1-.2a29 29 0 0 1 .6-.9l.2-.4.2-.3.2-.3.2-.3.2-.4.2-.3.1-.2.2-.3.2-.3.2-.3.1-.3v.3l-.1.3-.2.6-.2.4-.1.4-.1.3-.2.7-.3.7-.2.6-.2.6-.1.4-.1.3-.2.5-.3-.7-.2-.4-.1-.4Zm2.8-4.5Z"/><path fill="#46213c" d="M23.8 19.6h.2-.2Zm.2.1Zm.1 0h.1Zm-.1 0h.1Zm.3 0Z"/><path fill="#9a3841" d="M23.3 21.4v-.1Zm-.1 6v-.1Z"/><path fill="#46213c" d="M24.2 19.7h.1Z"/><path fill="#6d4d88" d="M9 14.5v.2l-.5.4-.6.6-.5.6-.6.6-.1.1-.3-.4-.2-.3.2-.2.2-.1.3-.2H7l.3-.2.1-.1.3-.2h.1l.3-.2.2-.1.2-.1.3-.2.2-.1h.1Z"/><path fill="#00a0d7" d="M5.3 14.7v.1-.1Z"/><path fill="#117cb4" d="M5.2 14.6Z"/><path fill="#00a0d7" d="M5.3 14.7Z"/><path fill="#117cb4" d="M5.2 14.7Zm0-.1Z"/><path fill="#6d4d88" d="M22.2 11.1H22l-.1-.2-.1-.1-.2-.2-.2-.2-.1-.2h-.1l-.1-.2.5-.8a4.4 4.4 0 0 1 .2-.3c.2.1.2.3.3.4l.2.5v.5l-.1.5v.3h-.1Z"/><path fill="#de6e70" d="m22.5 10-.3-.5-.3-.6.3-.4.5.2v.5l-.1.2v.2l-.1.4Z"/><path fill="#89c4bc" d="M2.7 18.4h-.1l.2-.2v.2Z"/><path fill="#46213c" d="M7.3 18.2h-.1Z"/><path fill="#1c518a" d="M2.8 18.2Z"/><path fill="#e49b48" d="m17.2 5.4-.6.6-.7.7-.7.7-.2.2v-.2l.2-.2V7l.2-.4v-.1l.2-.2v-.4l.2-.1v-.3l.2-.3.2-.4v-.2l-.1-.2-.3-.5-.3-.5-.2-.2h.1l1.2.1a8.3 8.3 0 0 1 .6.1c-.2 0-.3-.2-.4-.3l-.5-.4h.5l.1-.1h.4l.2.2V3l.2.3.1.1.2.3h-.2l-.2.1h-.2v.9l-.5.2h-.3V5a26 26 0 0 1 .8.4Zm-3.9.1.4.1.7.3v-.4l-.1-.2V5l-.1-.3v-.2l-.1-.2V4l-.1-.1v-.1l.1.4v.3l.1.2v.2l.1.1v.2l.1.2v.3l.2.4v.6l.1.1V7l.1.3v.2l.1.2-.2-.2-.4-.3L14 7l-.3-.2-.2-.2-.3-.2L13 6l-.3-.2-.1-.1v-.1l.6-.2h.1Z"/><path fill="#d76e35" d="M17.1 3.4h-.7l-.2-.1h-.4l-.2-.1h-.3l-.2-.4.9-.1h.2l.2.1.2.2h.1l.1.2.2.1.1.1Z"/><path fill="#ce5530" d="M16.3 2.6H16l-.1.1h-.7l-.1.1-.1-.1.4-.3.3-.2h.1v.1l.2.2h.1l.1.1Z"/><path fill="#e49b48" d="M14 3.8Zm0-.2Zm0 .1Zm1 3.9Z"/><path fill="#5a8b86" d="M7.3 18.3v-.1l.1-.1.1-.1.2-.2.2-.1.2-.2.2-.1.2-.1.1-.2h.1l.2-.2.2-.2h.2l.2-.3.2-.1.2-.2.2-.2.4-.2-.7 1.5-.4.7v.2l-.8 1.4v.2h-.1l-.1.1-2 1-1.7.8s0-.2.2-.3L5 21l.2-.2.3-.4.3-.4.3-.4.3-.3.2-.3.2-.2.3-.4v-.1Z"/><path fill="#9a3841" d="M21.7 31.1Z"/><path fill="#ce5530" d="m13.3 5.5-.7.2h-.2l-.1-.2h-.1v-.1h.7l-.4-.1-.7-.3h-.2v-.1h-.2l-.1-.2h-.1v-.1h.2a11 11 0 0 1 .6.3h.3l.1.1.3.1.5.2h.2v.1Z"/><path fill="#d97f35" d="M11.6 5h.1l.7.2h.2l.2.1h.1s0 .1-.1 0h-.9l-.1-.2-.2-.1Z"/><path fill="#e49b48" d="m20.7 7.5-.3-.2-.7-.4c-.2 0-.3-.2-.5-.3l-.5-.3-.5-.3-.4-.3c-.2 0-.3-.2-.5-.3l.9-.5 1-.6h.2l1.3.6v2.6Z"/><path fill="#7d2a38" d="M20.7 7.5V6v.4l.4.8.3.6V8l-.8-.5Z"/><path fill="#6d4d88" d="m22.7 8.8-.2-.2-.3-.1.3-.4.4-.6.2-.3v.2l-.1.4-.2.5v.5Z"/><path fill="#972863" d="m22.2 8.5-.2.2a.8.8 0 0 0 0 .2h-.1l-.3-.8.2.1.3.2h.1Z"/><path fill="#d97246" d="M20.8 5Z"/><path fill="#de6e70" d="M22.1 5.6Z"/><path fill="#7d2a38" d="M21.5 8Z"/><path fill="#ce5530" d="M19.4 4.3h-.2v.1l-.6.3-.3.1-.4.3-.4.2-.2.1-.1-.6v-.2h.1l.3-.1.3-.1.2-.1.4-.1h.2L19 4h.3l.2-.1.3-.1.3-.1h.2l.1-.1.3-.1-.1.1-1.1.6h-.2Z"/><path fill="#d97f35" d="m19.4 4.3.3-.2.4-.2.2-.2.3-.1h.2V5l-1.4-.6Z"/><path fill="#d76e35" d="M17.2 4.7v.7l-.3-.2-.2-.1-.3-.2.2-.1.3-.1.2-.1h.1Z"/><path fill="#fbfafa" d="M23.6 12.7Z"/><path fill="#00a0d7" d="m14.4 25.9-.2.4-.2.3-.2.3-.2.5-.3.4-.2.4-.3.5-.2.4v-.7l-.1-.2v-.6l-.1-.2V27l-.1-.3V26l-.1-.3v-.3l-.1-.2v-.7l-.1-.1v-.6h-.1v-.7l.5.5 2 2v.2Z"/><path fill="#de6e70" d="M8.4 19.8Z"/><path fill="#2d3071" d="M6.7 27.8Z"/><path fill="#00a0d7" d="m14.7 15.6-.1-.3V15l-.1-.2v-.5h-.1L14 14l-.6-.6-.1-.2v-.3h2.9l-.1.3v.4l-.1.2v.1l-1.5.4.3.2.3.1v1.2c-.2 0-.2-.1-.3-.2h-.1Z"/><path fill="#117cb4" d="M11.7 10.1h-1.2v-.2l-.3-.2-.6-.6-.3-.3h.6l.4.1h.4a29.2 29.2 0 0 1 1.1.3l.3.5.8 1 .1.3-1-.8-.3-.1Zm1.6 2.7v.5l.1.2h.1l.2.2.2.2.2.2.2.1v.1h-1v-.1L13 14c0-.2-.2-.3-.4-.4l-.2-.3-.3-.3-.2-.3.1-.2.3-.4V12l.6-.9h.1v.8l.1.3v.5Z"/><path fill="#46213c" d="m21.5 8 .3.6.1.3-.2.3-.3.4-.2.3-.3-.1c0-.2-.2-.3-.3-.4V7.5h.1l.4.3.2.1.2.1Z"/><path fill="#7d2a38" d="M17.3 9.3h.5l.5-.2h.9l.4-.1h.2l-1.3 1.2h-.2l-.8-.2-.2-.6v-.1Z"/><path fill="#866ca0" d="M8 9.2V9l.3-.2.2-.4L9 8l.1-.2.3-.3.3-.4.3-.4v.4l-.3.6-.2.7v.3h-.1l-.6.3-.8.2Z"/><path fill="#00a0d7" d="m13.1 11.2-.3.4-.3.5-.3-.6-.3-.7-.2-.7.2.1.1.1.3.2.1.1.2.2.2.1.2.2h.1Z"/><path fill="#6d4d88" d="M17.3 9.3v.2l.1.3v.2l-.4.3-.5.4.2-.4.4-.7.1-.3Z"/><path fill="#117cb4" d="M15 14.6h-.2l-.3-.3.4-.1h.2l.2-.1.4-.1h.2-.1l-.2.2-.2.2-.2.2H15Z"/><path fill="#972863" d="m17.2 17-.1-.1h.1Z"/><path fill="#de6e70" d="M16.9 16.8Zm-.4-.2Z"/><path fill="#117cb4" d="M13 11.1Z"/><path fill="#866ca0" d="M16.2 16.4Zm.1.1Zm0 0Z"/><path fill="#de6e70" d="M16.4 16.5Zm.2.1Zm0 0ZM16.6 16.7Zm.1 0ZM16.8 16.7Zm0 0Zm.2.1h-.1Zm0 0Z"/><path fill="#972863" d="M17 16.9Zm0 0Zm.1 0Zm.1.1Z"/><path fill="#de6e70" d="M17 16.9Z"/><path fill="#866ca0" d="M16.1 16.4Z"/><path fill="#de6e70" d="M16.6 16.7Z"/><path fill="#866ca0" d="M16.3 16.5Z"/><path fill="#1b191f" d="M8.5 19.8v-.1l3-1.5.1.7v.6l.1.5v.7h-.1a29.6 29.6 0 0 1-1.6-.5l-.6-.2-.7-.2h-.2Z"/><path fill="#00a0d7" d="m11.5 18.2-.5.3-2.5 1.2.1-.3.3-.5.4-.8V18h.2l2.8-.5 1-.2h.1-.2c-.1.2-.3.2-.4.3l-1.3.6Z"/><path fill="#1b191f" d="M13.4 17.3H13l-.5.2h-.6l-.2.1-.6.1h-.4l-.4.1a31.6 31.6 0 0 1-.8.2h-.1.1c0-.2.2-.2.3-.2l2.5-1 .1-.1h.3l.4.3.5.2Z"/><path fill="#00a0d7" d="m12.3 16.6-.9.4-1 .5-.9.4h-.1l.3-.6.4-.7.4-.8v-.1l.3.1a30.6 30.6 0 0 0 1.4.8h.1Z"/><path fill="#d76e35" d="M17.1 3.4Z"/></svg>